<svg fill="none" xmlns="http://www.w3.org/2000/svg">
<symbol id="burger">
    <path d="M3 12H21M3 6H21M3 18H21" stroke="currentColor" stroke-width="2" stroke-linecap="round" stroke-linejoin="round"/>
</symbol>
<symbol id="cross">
    <path d="M18 6L6 18M6 6L18 18" stroke="currentColor" stroke-width="2" stroke-linecap="round" stroke-linejoin="round"/>
</symbol>
<symbol id="rightArrow">
    <path d="M1 1L5.66667 5.66667L1 10.3333" fill="none" stroke="currentColor" stroke-width="1.55439" stroke-linecap="round" stroke-linejoin="round"/>
</symbol>
<symbol id="pencil" fill="none">
    <path d="M10.4151 26.6413L2 30L5.35874 21.5849M10.4151 26.6413L27.9018 9.15454M10.4151 26.6413L9.74234 22.2566L5.35874 21.5849M5.35874 21.5849L22.8455 4.09819M27.9018 9.15454L22.8455 4.09819M27.9018 9.15454L29.4718 7.58452C30.8681 6.18825 30.8681 3.92445 29.4718 2.52817V2.52817C28.0756 1.1319 25.8118 1.1319 24.4155 2.52817L22.8455 4.09819" stroke="currentColor" stroke-width="2.36842" stroke-linecap="round" stroke-linejoin="round"/>
</symbol>
<symbol id="pen" fill="none">
    <path d="M15.3919 6.43243L8.62929 8.21207C7.83414 8.42132 7.43656 8.52594 7.13458 8.77003C7.03533 8.85025 6.94484 8.94074 6.86462 9.03999C6.62053 9.34197 6.51591 9.73954 6.30666 10.5347L2.48853 25.0436C1.51297 28.7507 1.02518 30.6043 1.79096 31.7812C2.03212 32.1518 2.34818 32.4679 2.7188 32.709C3.8957 33.4748 5.74927 32.987 9.45641 32.0115L23.9653 28.1933C24.7605 27.9841 25.158 27.8795 25.46 27.6354C25.5593 27.5552 25.6497 27.4647 25.73 27.3654C25.9741 27.0634 26.0787 26.6659 26.2879 25.8707L28.0676 19.1081M15.3919 6.43243L28.0676 19.1081M15.3919 6.43243L18.5195 3.30479C19.4798 2.34453 19.9599 1.8644 20.5411 1.77236C20.7287 1.74263 20.9199 1.74263 21.1076 1.77236C21.6887 1.8644 22.1689 2.34453 23.1291 3.30479L31.1952 11.3709C32.1555 12.3311 32.6356 12.8113 32.7276 13.3924C32.7574 13.5801 32.7574 13.7713 32.7276 13.9589C32.6356 14.5401 32.1555 15.0202 31.1952 15.9805L28.0676 19.1081" stroke="currentColor" stroke-width="1.7633" stroke-linecap="round" stroke-linejoin="round"/>
    <path d="M12.9018 21.6063C11.5892 20.2937 11.5892 18.1655 12.9018 16.8529C14.2144 15.5403 16.3426 15.5403 17.6552 16.8529C18.9678 18.1655 18.9678 20.2937 17.6552 21.6063C16.3426 22.9189 14.2144 22.9189 12.9018 21.6063ZM12.9018 21.6063L8.14844 26.3597" stroke="currentColor" stroke-width="2.71622" stroke-linecap="round" stroke-linejoin="round"/>
</symbol>
<symbol id="loudspeaker" fill="none">
    <path d="M14.601 9.51757C14.3 11.1509 14.0145 14.2764 14.0145 15.9376C14.0145 17.5987 14.0899 20.7778 14.601 22.3576M14.601 9.51757L17.9382 6.59357C22.0888 2.95681 24.1642 1.13843 25.9371 1.49158C26.4886 1.60143 27.0074 1.83664 27.4534 2.17903C28.8874 3.27978 28.8874 6.03904 28.8874 11.5576V20.2794C28.8874 25.7168 28.8874 28.4356 27.4668 29.5365C27.0249 29.8789 26.5094 30.1162 25.9619 30.2292C24.2018 30.5925 22.1378 28.8257 18.01 25.2922C16.114 23.6692 14.705 22.4588 14.601 22.3576M14.601 9.51757C13.8707 9.46649 10.5902 9.46547 7.43425 9.47771C4.81904 9.48786 3.51144 9.49294 2.57446 10.1439C2.21302 10.3951 1.8971 10.7122 1.64737 11.0746C1 12.0141 1 13.3268 1 15.9522V15.9522C1 18.5899 1 19.9088 1.6513 20.8502C1.90254 21.2133 2.22014 21.5306 2.58354 21.7815C3.52559 22.4318 4.83965 22.4305 7.46777 22.4278C10.6134 22.4246 13.8733 22.4085 14.601 22.3576M4.71886 22.4203L4.67845 31.8253C4.67191 33.346 5.90323 34.582 7.42389 34.5812V34.5812C8.93882 34.5804 10.1665 33.3521 10.1665 31.8371V22.4212M32.6057 8.46567C34.4648 14.0696 34.4648 17.8055 32.6057 23.4095" stroke="currentColor" stroke-width="1.5" stroke-linecap="round" stroke-linejoin="round"/>
</symbol>
<symbol id="colorpicker" fill="none">
    <path d="M27.3491 12.0179C27.3491 13.826 25.8358 15.2918 23.9691 15.2918C22.1024 15.2918 20.5891 13.826 20.5891 12.0179C20.5891 10.2098 22.1024 8.74397 23.9691 8.74397C25.8358 8.74397 27.3491 10.2098 27.3491 12.0179Z" stroke="currentColor" stroke-width="1.65"/>
    <path d="M14.7949 12.0179C14.7949 13.826 13.2816 15.2918 11.4149 15.2918C9.54817 15.2918 8.0349 13.826 8.0349 12.0179C8.0349 10.2098 9.54817 8.74397 11.4149 8.74397C13.2816 8.74397 14.7949 10.2098 14.7949 12.0179Z" stroke="currentColor" stroke-width="1.65"/>
    <path d="M15.7606 23.2428C15.7606 25.0509 14.2473 26.5167 12.3806 26.5167C10.5139 26.5167 9.00061 25.0509 9.00061 23.2428C9.00061 21.4347 10.5139 19.9689 12.3806 19.9689C14.2473 19.9689 15.7606 21.4347 15.7606 23.2428Z" stroke="currentColor" stroke-width="1.65"/>
    <path d="M33.9966 13.2085C33.7962 4.89327 21.706 -0.311968 12.9008 1.28864C4.09565 2.88925 -0.164172 11.5656 1.27492 19.9689C2.6741 28.1391 11.8977 34 17.692 34C23.4862 34 28.3148 31.1938 24.2409 27.8498C23.1075 26.9716 22.1844 25.8655 21.5353 24.608C20.5616 22.7217 22.3234 20.0288 24.4923 20.2139C28.894 20.5896 34.1529 19.6927 33.9966 13.2085Z" stroke="currentColor" stroke-width="1.65"/>    
</symbol>
<symbol id="human" fill="none">
    <path d="M25.2 3.55599C25.9999 4.2634 26.4751 5.14715 26.4753 6.10574C26.4754 7.06432 26.0006 7.94789 25.201 8.65499M29.8045 1C30.9372 2.53656 31.575 4.27127 31.5753 6.10718C31.5757 7.93765 30.9424 9.66726 29.8166 11.2M15 11.2C12.1833 11.2 9.9 8.91665 9.9 6.1C9.9 3.28335 12.1833 1 15 1C17.8167 1 20.1 3.28335 20.1 6.1C20.1 8.91665 17.8167 11.2 15 11.2ZM7.07645 31.6H22.9235C27.1921 31.6 30.0473 27.2065 28.3137 23.3058V23.3058C26.4203 19.0456 22.1955 16.3 17.5334 16.3H12.4666C7.80454 16.3 3.57974 19.0456 1.6863 23.3058V23.3058C-0.047318 27.2065 2.80792 31.6 7.07645 31.6Z" stroke="currentColor" stroke-width="1.5" stroke-linecap="round" stroke-linejoin="round"/>
</symbol>
<symbol id="diamond" fill="none">
    <path d="M11.3333 16.0521L7.55556 11.0347L9.29937 9.01843C10.1875 7.99159 10.6315 7.47816 11.2012 7.156C11.3894 7.04961 11.5863 6.95956 11.7899 6.88684C12.4062 6.66667 13.085 6.66667 14.4426 6.66667H17M7.43078 3.13952L3.97076 6.81579C2.29366 8.59771 1.45511 9.48867 1.24758 10.5644C1.18013 10.914 1.16245 11.2714 1.19505 11.6259C1.29536 12.7169 2.04185 13.6863 3.53483 15.6251L11.6123 26.1146C13.7973 28.952 14.8898 30.3708 16.3128 30.634C16.7671 30.718 17.2329 30.718 17.6872 30.634C19.1102 30.3708 20.2027 28.952 22.3877 26.1146L30.4652 15.6251C31.9582 13.6863 32.7046 12.7169 32.805 11.6259C32.8375 11.2714 32.8199 10.914 32.7524 10.5644C32.5449 9.48867 31.7063 8.59771 30.0292 6.81579L26.5692 3.13952C25.6885 2.20371 25.2481 1.73581 24.6993 1.44348C24.5178 1.34685 24.3288 1.26519 24.1341 1.19931C23.5451 1 22.9026 1 21.6175 1H12.3825C11.0974 1 10.4549 1 9.86587 1.19931C9.67117 1.26519 9.48217 1.34685 9.30075 1.44348C8.75192 1.73581 8.31154 2.20371 7.43078 3.13952Z" stroke="currentColor" stroke-width="1.5" stroke-linecap="round" stroke-linejoin="round"/>
</symbol>
<symbol id="mail">
    <path d="M1.01562 15.165C1.01562 10.7631 1.01562 8.56219 1.73475 6.82607C2.69359 4.51123 4.53272 2.6721 6.84755 1.71327C8.58368 0.994141 10.7846 0.994141 15.1865 0.994141H20.8548C25.2566 0.994141 27.4576 0.994141 29.1937 1.71327C31.5085 2.6721 33.3477 4.51123 34.3065 6.82607C35.0256 8.56219 35.0256 10.7631 35.0256 15.165V15.165C35.0256 19.5668 35.0256 21.7678 34.3065 23.5039C33.3477 25.8187 31.5085 27.6578 29.1937 28.6167C27.4576 29.3358 25.2566 29.3358 20.8548 29.3358H15.1865C10.7846 29.3358 8.58368 29.3358 6.84755 28.6167C4.53272 27.6578 2.69359 25.8187 1.73475 23.5039C1.01562 21.7678 1.01562 19.5668 1.01562 15.165V15.165Z" stroke="currentColor" stroke-width="1.5" stroke-linejoin="round"/>
    <path d="M1.01562 7.60718L7.58117 12.7135C12.0207 16.1662 14.2404 17.8926 16.776 18.2298C17.6026 18.3397 18.4401 18.3397 19.2667 18.2297C21.8023 17.8925 24.022 16.166 28.4613 12.713L35.0256 7.60718" stroke="currentColor" stroke-width="1.5" stroke-linejoin="round"/>
</symbol>
<symbol id="lamp">
    <path d="M23.849 35.3719H9.11562M23.849 35.3719V37.8275C23.849 40.1158 23.849 41.2599 23.4751 42.1624C22.9767 43.3658 22.0206 44.3219 20.8172 44.8203C19.9147 45.1941 18.7706 45.1941 16.4823 45.1941V45.1941C14.194 45.1941 13.0499 45.1941 12.1473 44.8203C10.944 44.3219 9.98791 43.3658 9.48946 42.1624C9.11562 41.2599 9.11562 40.1158 9.11562 37.8275V35.3719M23.849 35.3719V32.8984C23.849 32.1118 24.0963 31.3451 24.5559 30.7068L28.7314 24.9073C35.9201 14.9231 28.7853 0.994141 16.4823 0.994141V0.994141C4.17932 0.994141 -2.95555 14.9231 4.23313 24.9073L8.40871 30.7068C8.86833 31.3451 9.11562 32.1118 9.11562 32.8984V35.3719M12.799 21.8664L16.4823 28.0053L20.1656 21.8664" stroke="currentColor" stroke-width="1.5" stroke-linecap="round" stroke-linejoin="round"/>
</symbol>
<symbol id="settings">
    <path d="M1.01562 5.53011H4.31451M13.3865 5.53011L30.7056 5.53011M1.01562 26.1482H4.31451M13.3865 26.1482L30.7056 26.1482M30.7056 15.8391H27.4067M18.3348 15.8391L1.01562 15.8391M22.8708 20.3751V20.3751C20.3656 20.3751 18.3348 18.3443 18.3348 15.8391V15.8391C18.3348 13.334 20.3656 11.3032 22.8708 11.3032V11.3032C25.3759 11.3032 27.4067 13.334 27.4067 15.8391V15.8391C27.4067 18.3443 25.3759 20.3751 22.8708 20.3751ZM13.3865 26.1482V26.1482C13.3865 23.643 11.3556 21.6122 8.85049 21.6122V21.6122C6.34534 21.6122 4.31451 23.643 4.31451 26.1482V26.1482C4.31451 28.6533 6.34534 30.6841 8.85049 30.6841V30.6841C11.3556 30.6841 13.3865 28.6533 13.3865 26.1482ZM8.85049 10.0661V10.0661C11.3556 10.0661 13.3865 8.03526 13.3865 5.53011V5.53011C13.3865 3.02497 11.3556 0.994141 8.85049 0.994141V0.994141C6.34534 0.994141 4.31451 3.02497 4.31451 5.53011V5.53011C4.31451 8.03526 6.34534 10.0661 8.85049 10.0661Z" stroke="currentColor" stroke-width="1.5" stroke-linecap="round" stroke-linejoin="round"/>
</symbol>
<symbol id="check">
    <path d="M16.8996 11.7155L10.3018 18.3133L7.41528 15.4268M24.3221 14.1897L17.7243 20.7875L16.0749 19.138M30.7056 15.8391C30.7056 24.0378 24.0593 30.6841 15.8606 30.6841C7.66196 30.6841 1.01562 24.0378 1.01562 15.8391C1.01562 7.64047 7.66196 0.994141 15.8606 0.994141C24.0593 0.994141 30.7056 7.64047 30.7056 15.8391Z" stroke="currentColor" stroke-width="1.7936" stroke-linecap="round" stroke-linejoin="round"/>
</symbol>
<symbol id="cornerArrow">
    <path d="M1 21L11 11L21 1M21 1H13.5M21 1V8.5" stroke="currentColor" stroke-width="1.875" stroke-linecap="round" stroke-linejoin="round"/>
</symbol>
<symbol id="facebook" fill="none">
    <path d="M6.76 22.6H7.24C8.13994 22.6 8.5899 22.6 8.90534 22.3708C9.00722 22.2968 9.09681 22.2072 9.17082 22.1053C9.4 21.7899 9.4 21.3399 9.4 20.44V13.6H10.9C11.7427 13.6 12.164 13.6 12.4667 13.3978C12.5977 13.3102 12.7102 13.1977 12.7978 13.0667C13 12.764 13 12.3427 13 11.5C13 10.6573 13 10.236 12.7978 9.93332C12.7102 9.80229 12.5977 9.68979 12.4667 9.60224C12.164 9.4 11.7427 9.4 10.9 9.4H9.4V7C9.4 6.44087 9.4 6.16131 9.49135 5.94078C9.61314 5.64675 9.84675 5.41314 10.1408 5.29134C10.3613 5.2 10.6409 5.2 11.2 5.2C11.7591 5.2 12.0387 5.2 12.2592 5.10866C12.5533 4.98686 12.7869 4.75325 12.9087 4.45922C13 4.23869 13 3.95913 13 3.4V2.86667C13 2.24487 13 1.93397 12.8876 1.69286C12.7683 1.43717 12.5628 1.23166 12.3071 1.11243C12.066 1 11.7551 1 11.1333 1C8.95703 1 7.86888 1 7.02501 1.39351C6.13009 1.81081 5.41081 2.53009 4.99351 3.425C4.6 4.26888 4.6 5.35703 4.6 7.53333V9.4H3.1C2.25732 9.4 1.83598 9.4 1.53332 9.60224C1.40229 9.68979 1.28979 9.80229 1.20224 9.93332C1 10.236 1 10.6573 1 11.5C1 12.3427 1 12.764 1.20224 13.0667C1.28979 13.1977 1.40229 13.3102 1.53332 13.3978C1.83598 13.6 2.25732 13.6 3.1 13.6H4.6V20.44C4.6 21.3399 4.6 21.7899 4.82918 22.1053C4.9032 22.2072 4.99278 22.2968 5.09466 22.3708C5.4101 22.6 5.86006 22.6 6.76 22.6Z" stroke="currentColor" stroke-width="1.5" stroke-linejoin="round"/>
</symbol>
<symbol id="facebook-mini">
    <path d="M5.3318 16.0545H5.6678C6.29776 16.0545 6.61274 16.0545 6.83354 15.8941C6.90486 15.8423 6.96757 15.7796 7.01938 15.7082C7.1798 15.4874 7.1798 15.1725 7.1798 14.5425V9.75451H8.2298C8.81968 9.75451 9.11462 9.75451 9.32648 9.61294C9.4182 9.55166 9.49695 9.47291 9.55824 9.38119C9.6998 9.16932 9.6998 8.87438 9.6998 8.28451C9.6998 7.69463 9.6998 7.3997 9.55824 7.18783C9.49695 7.09611 9.4182 7.01736 9.32648 6.95607C9.11462 6.81451 8.81968 6.81451 8.2298 6.81451H7.1798V5.13451C7.1798 4.74312 7.1798 4.54742 7.24375 4.39306C7.329 4.18723 7.49253 4.02371 7.69835 3.93845C7.85272 3.87451 8.04841 3.87451 8.4398 3.87451C8.8312 3.87451 9.02689 3.87451 9.18126 3.81057C9.38708 3.72531 9.55061 3.56179 9.63586 3.35596C9.6998 3.2016 9.6998 3.0059 9.6998 2.61451V2.24118C9.6998 1.80592 9.6998 1.58829 9.6211 1.41951C9.53764 1.24053 9.39379 1.09667 9.2148 1.01321C9.04603 0.934509 8.8284 0.934509 8.39314 0.934509C6.86973 0.934509 6.10802 0.934509 5.51731 1.20996C4.89087 1.50208 4.38737 2.00557 4.09526 2.63201C3.8198 3.22273 3.8198 3.98443 3.8198 5.50784V6.81451H2.7698C2.17993 6.81451 1.88499 6.81451 1.67313 6.95607C1.58141 7.01736 1.50266 7.09611 1.44137 7.18783C1.2998 7.3997 1.2998 7.69463 1.2998 8.28451C1.2998 8.87438 1.2998 9.16932 1.44137 9.38119C1.50266 9.47291 1.58141 9.55166 1.67313 9.61294C1.88499 9.75451 2.17993 9.75451 2.76981 9.75451H3.8198V14.5425C3.8198 15.1725 3.8198 15.4874 3.98023 15.7082C4.03204 15.7796 4.09475 15.8423 4.16606 15.8941C4.38687 16.0545 4.70185 16.0545 5.3318 16.0545Z" stroke="currentColor" stroke-width="1.05" stroke-linejoin="round"/>
</symbol>
<symbol id="instagram">
    <path d="M1 10.14C1 6.33194 1 4.42791 1.96977 3.09313C2.28296 2.66206 2.66206 2.28296 3.09313 1.96977C4.42791 1 6.33194 1 10.14 1H14.71C18.5181 1 20.4221 1 21.7569 1.96977C22.1879 2.28296 22.567 2.66206 22.8802 3.09313C23.85 4.42791 23.85 6.33194 23.85 10.14V14.71C23.85 18.5181 23.85 20.4221 22.8802 21.7569C22.567 22.1879 22.1879 22.567 21.7569 22.8802C20.4221 23.85 18.5181 23.85 14.71 23.85H10.14C6.33194 23.85 4.42791 23.85 3.09313 22.8802C2.66206 22.567 2.28296 22.1879 1.96977 21.7569C1 20.4221 1 18.5181 1 14.71V10.14Z" stroke="currentColor" stroke-width="1.90417" stroke-linejoin="round"/>
    <path d="M17.5028 12.425C17.5028 15.2294 15.2294 17.5028 12.425 17.5028C9.62062 17.5028 7.34722 15.2294 7.34722 12.425C7.34722 9.62062 9.62062 7.34722 12.425 7.34722C15.2294 7.34722 17.5028 9.62062 17.5028 12.425Z" stroke="currentColor" stroke-width="1.90417" stroke-linejoin="round"/>
</symbol>
<symbol id="instagram-mini">
<path d="M14.4286 4.04449C14.4286 4.28988 14.2297 4.4888 13.9843 4.4888C13.7389 4.4888 13.54 4.28988 13.54 4.04449C13.54 3.79911 13.7389 3.60019 13.9843 3.60019C14.2297 3.60019 14.4286 3.79911 14.4286 4.04449Z" fill="currentColor" stroke="currentColor" stroke-width="0.888611"/>
<path d="M1.09961 7.33251C1.09961 4.66687 1.09961 3.33404 1.77845 2.3997C1.99768 2.09795 2.26305 1.83258 2.5648 1.61335C3.49914 0.934509 4.83197 0.934509 7.49761 0.934509H10.6966C13.3623 0.934509 14.6951 0.934509 15.6294 1.61335C15.9312 1.83258 16.1965 2.09795 16.4158 2.3997C17.0946 3.33404 17.0946 4.66687 17.0946 7.33251V10.5315C17.0946 13.1972 17.0946 14.53 16.4158 15.4643C16.1965 15.7661 15.9312 16.0314 15.6294 16.2507C14.6951 16.9295 13.3623 16.9295 10.6966 16.9295H7.49761C4.83197 16.9295 3.49914 16.9295 2.5648 16.2507C2.26305 16.0314 1.99768 15.7661 1.77845 15.4643C1.09961 14.53 1.09961 13.1972 1.09961 10.5315V7.33251Z" stroke="currentColor" stroke-width="1.33292" stroke-linejoin="round"/>
<path d="M12.6516 8.93201C12.6516 10.8951 11.0602 12.4865 9.09711 12.4865C7.13404 12.4865 5.54266 10.8951 5.54266 8.93201C5.54266 6.96894 7.13404 5.37756 9.09711 5.37756C11.0602 5.37756 12.6516 6.96894 12.6516 8.93201Z" stroke="currentColor" stroke-width="1.33292" stroke-linejoin="round"/>
</symbol>
<symbol id="in">
    <path d="M11.1555 10.521V18.1377V14.8847C11.1555 12.4747 13.1092 10.521 15.5192 10.521V10.521C16.9652 10.521 18.1374 11.6932 18.1374 13.1392V18.1377M6.7124 10.521V18.1377" stroke="currentColor" stroke-width="1.375" stroke-linecap="round" stroke-linejoin="round"/>
    <path d="M7.98225 6.7128C7.98225 7.4139 7.4139 7.98225 6.7128 7.98225C6.01171 7.98225 5.44336 7.4139 5.44336 6.7128C5.44336 6.01171 6.01171 5.44336 6.7128 5.44336C7.4139 5.44336 7.98225 6.01171 7.98225 6.7128Z" fill="currentColor"/>
    <path d="M1 7.60001C1 4.8502 1 3.47529 1.70027 2.51145C1.92643 2.20017 2.20017 1.92643 2.51145 1.70027C3.47529 1 4.8502 1 7.6 1H17.25C19.9998 1 21.3747 1 22.3385 1.70027C22.6498 1.92643 22.9236 2.20017 23.1497 2.51145C23.85 3.47529 23.85 4.8502 23.85 7.6V17.25C23.85 19.9998 23.85 21.3747 23.1497 22.3385C22.9236 22.6498 22.6498 22.9236 22.3385 23.1497C21.3747 23.85 19.9998 23.85 17.25 23.85H7.60001C4.8502 23.85 3.47529 23.85 2.51145 23.1497C2.20017 22.9236 1.92643 22.6498 1.70027 22.3385C1 21.3747 1 19.9998 1 17.25V7.60001Z" stroke="currentColor" stroke-width="1.375" stroke-linejoin="round"/>
</symbol>
<symbol id="in-mini">
    <path d="M7.01092 6.87622V11.3096V9.41615C7.01092 8.01339 8.14808 6.87622 9.55085 6.87622V6.87622C10.3925 6.87622 11.0748 7.55852 11.0748 8.40018V11.3096M4.4248 6.87622V11.3096" stroke="currentColor" stroke-width="1.05" stroke-linecap="round" stroke-linejoin="round"/>
    <path d="M5.16332 4.65954C5.16332 5.06762 4.83251 5.39843 4.42444 5.39843C4.01636 5.39843 3.68555 5.06762 3.68555 4.65954C3.68555 4.25147 4.01636 3.92065 4.42444 3.92065C4.83251 3.92065 5.16332 4.25147 5.16332 4.65954Z" fill="currentColor" fill-opacity="0.9" stroke="#0C0C0C" stroke-width="1.05"/>
    <path d="M1.09961 6.65454C1.09961 4.43803 1.09961 3.32977 1.66407 2.55286C1.84637 2.30195 2.06702 2.08129 2.31793 1.89899C3.09485 1.33453 4.2031 1.33453 6.41961 1.33453H9.0796C11.2961 1.33453 12.4044 1.33453 13.1813 1.89899C13.4322 2.08129 13.6529 2.30195 13.8351 2.55286C14.3996 3.32977 14.3996 4.43803 14.3996 6.65453V9.31453C14.3996 11.531 14.3996 12.6393 13.8351 13.4162C13.6529 13.6671 13.4322 13.8878 13.1813 14.0701C12.4044 14.6345 11.2961 14.6345 9.07961 14.6345H6.41961C4.2031 14.6345 3.09485 14.6345 2.31793 14.0701C2.06702 13.8878 1.84637 13.6671 1.66407 13.4162C1.09961 12.6393 1.09961 11.531 1.09961 9.31453V6.65454Z" stroke="currentColor" stroke-width="1.05" stroke-linejoin="round"/>
</symbol>
<symbol id="star">
    <path d="M18.6942 8.59371L14.8011 12.3887L15.7205 17.7487C15.7605 17.9831 15.6642 18.22 15.4717 18.36C15.363 18.4393 15.2336 18.4793 15.1042 18.4793C15.0049 18.4793 14.9049 18.4556 14.8136 18.4075L9.99985 15.8768L5.18673 18.4068C4.97673 18.5181 4.7211 18.5 4.5286 18.3593C4.3361 18.2193 4.23985 17.9825 4.27985 17.7481L5.19923 12.3881L1.30548 8.59371C1.13548 8.42746 1.0736 8.17871 1.14735 7.95309C1.2211 7.72746 1.41673 7.56184 1.65235 7.52746L7.03298 6.74621L9.43923 1.86996C9.64985 1.44309 10.3499 1.44309 10.5605 1.86996L12.9667 6.74621L18.3474 7.52746C18.583 7.56184 18.7786 7.72684 18.8524 7.95309C18.9261 8.17934 18.8642 8.42684 18.6942 8.59371Z" fill="currentColor"/>
</symbol>
<symbol id="email">
    <path d="M1 11.4167C1 8.18096 1 6.56311 1.52861 5.28692C2.23343 3.58534 3.58534 2.23343 5.28692 1.52861C6.56311 1 8.18096 1 11.4167 1H15.5833C18.819 1 20.4369 1 21.7131 1.52861C23.4147 2.23343 24.7666 3.58534 25.4714 5.28692C26 6.56311 26 8.18096 26 11.4167V11.4167C26 14.6524 26 16.2702 25.4714 17.5464C24.7666 19.248 23.4147 20.5999 21.7131 21.3047C20.4369 21.8333 18.819 21.8333 15.5833 21.8333H11.4167C8.18096 21.8333 6.56311 21.8333 5.28692 21.3047C3.58534 20.5999 2.23343 19.248 1.52861 17.5464C1 16.2702 1 14.6524 1 11.4167V11.4167Z" stroke="currentColor" stroke-width="1.10262" stroke-linejoin="round"/>
    <path d="M0.999939 5.86108L5.82613 9.61462C9.0895 12.1527 10.7212 13.4217 12.585 13.6695C13.1927 13.7503 13.8083 13.7503 14.4159 13.6695C16.2798 13.4216 17.9114 12.1525 21.1746 9.61426L25.9999 5.86108" stroke="currentColor" stroke-width="1.10262" stroke-linejoin="round"/>
</symbol>
<symbol id="phone">
    <path d="M2.22375 2.22327L1.87026 1.86965L2.22375 2.22327ZM8.13253 2.22327L8.48601 1.86965L8.13253 2.22327ZM8.13253 8.12974L7.77904 7.77612L8.13253 8.12974ZM15.3075 15.3019L14.954 14.9483L15.3075 15.3019ZM21.2163 21.2084L20.8628 20.8547L21.2163 21.2084ZM6.4443 16.9895L6.09082 17.3431L6.4443 16.9895ZM1.02212 5.60703L1.52211 5.60419C1.52202 5.58802 1.52115 5.57186 1.51949 5.55577L1.02212 5.60703ZM17.8312 22.4095L17.8824 21.9121C17.8663 21.9105 17.8502 21.9096 17.834 21.9095L17.8312 22.4095ZM5.84138 9.30036L5.76245 8.80663C5.60251 8.8322 5.46486 8.93367 5.39311 9.07889C5.32136 9.2241 5.3244 9.39508 5.40128 9.53766L5.84138 9.30036ZM14.1364 17.5921L13.8992 18.0323C14.0418 18.1091 14.2127 18.1121 14.3579 18.0404C14.5031 17.9686 14.6045 17.831 14.6301 17.6711L14.1364 17.5921ZM2.57723 2.57689C4.01365 1.14104 6.34262 1.14104 7.77904 2.57689L8.48601 1.86965C6.6591 0.0434506 3.69717 0.0434506 1.87026 1.86965L2.57723 2.57689ZM7.77904 2.57689C9.21535 4.01264 9.21535 6.34037 7.77904 7.77612L8.48601 8.48337C10.313 6.65706 10.313 3.69595 8.48601 1.86965L7.77904 2.57689ZM15.661 15.6555C17.0974 14.2197 19.4263 14.2197 20.8628 15.6555L21.5697 14.9483C19.7428 13.1221 16.7809 13.1221 14.954 14.9483L15.661 15.6555ZM20.8628 15.6555C22.2991 17.0913 22.2991 19.419 20.8628 20.8547L21.5697 21.562C23.3968 19.7357 23.3968 16.7746 21.5697 14.9483L20.8628 15.6555ZM6.79779 16.6358C3.36864 13.208 1.54173 9.06111 1.52211 5.60419L0.522131 5.60987C0.543572 9.38767 2.52056 13.7742 6.09082 17.3431L6.79779 16.6358ZM1.51949 5.55577C1.40982 4.49173 1.76264 3.39117 2.57723 2.57689L1.87026 1.86965C0.833808 2.9057 0.385543 4.30757 0.524758 5.65829L1.51949 5.55577ZM20.8628 20.8547C20.0482 21.669 18.947 22.0218 17.8824 21.9121L17.7799 22.9069C19.131 23.046 20.5333 22.598 21.5697 21.562L20.8628 20.8547ZM17.834 21.9095C14.3755 21.8899 10.2269 20.0636 6.79779 16.6358L6.09082 17.3431C9.66109 20.912 14.0493 22.8881 17.8283 22.9095L17.834 21.9095ZM7.77904 7.77612C7.20941 8.34553 6.50076 8.68861 5.76245 8.80663L5.92031 9.79409C6.85959 9.64394 7.76248 9.20661 8.48601 8.48337L7.77904 7.77612ZM9.75218 13.6826C8.30772 12.2387 7.14437 10.6634 6.28148 9.06307L5.40128 9.53766C6.3117 11.2262 7.53413 12.8793 9.04521 14.3898L9.75218 13.6826ZM14.6301 17.6711C14.7482 16.9332 15.0913 16.2249 15.661 15.6555L14.954 14.9483C14.2305 15.6715 13.7929 16.5741 13.6427 17.5132L14.6301 17.6711ZM14.3735 17.152C12.7725 16.2894 11.1966 15.1265 9.75218 13.6826L9.04521 14.3898C10.5563 15.9003 12.2101 17.1223 13.8992 18.0323L14.3735 17.152Z" fill="currentColor"/>
</symbol>
<symbol id="geo">
    <path d="M10.1534 0.772949C4.5235 0.772949 -0.0406389 5.30357 1.09219 10.9668C1.84573 14.7339 5.60605 18.2504 8.03965 20.1829C8.83504 20.8146 9.23274 21.1304 9.85029 21.2138C10.0215 21.2369 10.2854 21.2369 10.4566 21.2138C11.0741 21.1304 11.4718 20.8146 12.2672 20.183C14.7009 18.2505 18.4613 14.734 19.2147 10.9668C20.3472 5.30357 15.7834 0.772949 10.1534 0.772949Z" stroke="currentColor" stroke-width="1.5" stroke-linejoin="round"/>
    <path d="M13.5513 10.0041C13.5513 11.8807 12.0299 13.4021 10.1533 13.4021C8.27665 13.4021 6.75533 11.8807 6.75533 10.0041C6.75533 8.12744 8.27665 6.60612 10.1533 6.60612C12.0299 6.60612 13.5513 8.12744 13.5513 10.0041Z" stroke="currentColor" stroke-width="1.5" stroke-linejoin="round"/>
</symbol>
</svg>
