<svg width="16" height="17" viewBox="0 0 16 17" fill="none" xmlns="http://www.w3.org/2000/svg">
<path fill-rule="evenodd" clip-rule="evenodd" d="M7.9476 16.1363C12.2714 16.1363 15.7765 12.6312 15.7765 8.30737C15.7765 3.98356 12.2714 0.478424 7.9476 0.478424C3.62379 0.478424 0.118652 3.98356 0.118652 8.30737C0.118652 12.6312 3.62379 16.1363 7.9476 16.1363ZM10.7823 7.12727C11.0175 6.89208 11.0175 6.51078 10.7823 6.27559C10.5471 6.04041 10.1658 6.04041 9.93063 6.27559L7.14459 9.06163L5.96449 7.88153C5.72931 7.64635 5.348 7.64635 5.11281 7.88153C4.87763 8.11671 4.87763 8.49802 5.11281 8.73321L6.71875 10.3391C6.83169 10.4521 6.98487 10.5155 7.14459 10.5155C7.30431 10.5155 7.45749 10.4521 7.57043 10.3391L10.7823 7.12727Z" fill="#64CCC5"/>
</svg>
