<svg width="155" height="40" viewBox="0 0 155 40" fill="none" xmlns="http://www.w3.org/2000/svg">
<path d="M62.3441 11.0675C61.5041 11.0675 60.7341 11.2775 60.0341 11.6975C59.3341 12.0975 58.7241 12.6775 58.2041 13.4375C57.7041 14.1975 57.3141 15.1175 57.0341 16.1975C56.7741 17.2575 56.6441 18.4475 56.6441 19.7675C56.6441 21.1275 56.7841 22.3475 57.0641 23.4275C57.3441 24.4875 57.7341 25.3975 58.2341 26.1575C58.7541 26.9175 59.3941 27.4975 60.1541 27.8975C60.9141 28.2775 61.7741 28.4675 62.7341 28.4675C63.7741 28.4675 64.6841 28.2175 65.4641 27.7175C66.2641 27.2175 66.9341 26.5275 67.4741 25.6475C68.0141 24.7475 68.4041 23.7275 68.6441 22.5875L70.6841 23.3975C70.3641 24.8175 69.8341 26.0875 69.0941 27.2075C68.3541 28.3075 67.4041 29.1675 66.2441 29.7875C65.1041 30.4075 63.7441 30.7175 62.1641 30.7175C60.6241 30.7175 59.2041 30.4575 57.9041 29.9375C56.6241 29.3975 55.5141 28.6475 54.5741 27.6875C53.6341 26.7075 52.9041 25.5475 52.3841 24.2075C51.8641 22.8675 51.6041 21.3875 51.6041 19.7675C51.6041 18.1475 51.8741 16.6675 52.4141 15.3275C52.9541 13.9875 53.6941 12.8375 54.6341 11.8775C55.5741 10.8975 56.6541 10.1475 57.8741 9.62748C59.1141 9.08748 60.4341 8.81748 61.8341 8.81748C63.2341 8.81748 64.4041 9.04748 65.3441 9.50748C66.2841 9.96748 67.0441 10.6075 67.6241 11.4275C68.2241 12.2275 68.6941 13.1675 69.0341 14.2475L67.6241 14.0375L68.1641 9.11748H70.3241V15.7475H67.8341C67.5341 14.7875 67.1441 13.9675 66.6641 13.2875C66.1841 12.5875 65.5941 12.0475 64.8941 11.6675C64.1941 11.2675 63.3441 11.0675 62.3441 11.0675ZM82.8643 21.1775L82.8343 22.8575C82.0543 22.9575 81.3543 23.0775 80.7343 23.2175C80.1143 23.3575 79.5743 23.5375 79.1143 23.7575C78.6743 23.9575 78.3043 24.1975 78.0043 24.4775C77.7243 24.7375 77.5043 25.0375 77.3443 25.3775C77.2043 25.7175 77.1343 26.0875 77.1343 26.4875C77.1343 26.9475 77.2243 27.3475 77.4043 27.6875C77.5843 28.0075 77.8343 28.2575 78.1543 28.4375C78.4743 28.5975 78.8443 28.6775 79.2643 28.6775C79.8043 28.6775 80.2943 28.5375 80.7343 28.2575C81.1743 27.9775 81.5643 27.5775 81.9043 27.0575C82.2443 26.5375 82.5343 25.9375 82.7743 25.2575L82.8343 27.2975C82.5343 28.0175 82.1443 28.6375 81.6643 29.1575C81.2043 29.6575 80.6443 30.0475 79.9843 30.3275C79.3243 30.5875 78.5743 30.7175 77.7343 30.7175C76.7543 30.7175 75.8943 30.5675 75.1543 30.2675C74.4143 29.9475 73.8343 29.4875 73.4143 28.8875C73.0143 28.2675 72.8143 27.5275 72.8143 26.6675C72.8143 25.8275 73.0243 25.1075 73.4443 24.5075C73.8843 23.9075 74.5243 23.3975 75.3643 22.9775C76.2043 22.5375 77.2443 22.1775 78.4843 21.8975C79.7443 21.5975 81.2043 21.3575 82.8643 21.1775ZM82.4743 30.4175V27.3875H82.1443V19.4975C82.1443 18.8575 82.0443 18.3375 81.8443 17.9375C81.6643 17.5375 81.3943 17.2575 81.0343 17.0975C80.6743 16.9175 80.2243 16.8275 79.6843 16.8275C78.8643 16.8275 78.1943 17.0075 77.6743 17.3675C77.1543 17.7075 76.7443 18.1175 76.4443 18.5975C76.3243 18.3775 76.2643 18.1775 76.2643 17.9975C76.2643 17.7975 76.3143 17.6175 76.4143 17.4575C76.5343 17.2775 76.6843 17.1275 76.8643 17.0075C77.0643 16.8875 77.2843 16.7975 77.5243 16.7375V19.9175H73.8343V16.7075C74.1343 16.4875 74.5643 16.2275 75.1243 15.9275C75.6843 15.6275 76.3843 15.3675 77.2243 15.1475C78.0643 14.9075 79.0343 14.7875 80.1343 14.7875C81.0343 14.7875 81.8743 14.8875 82.6543 15.0875C83.4343 15.2675 84.1143 15.5575 84.6943 15.9575C85.2943 16.3575 85.7543 16.8875 86.0743 17.5475C86.4143 18.1875 86.5843 18.9775 86.5843 19.9175V27.7175C86.5843 27.9575 86.6543 28.1475 86.7943 28.2875C86.9543 28.4075 87.1643 28.4975 87.4243 28.5575C87.7043 28.6175 88.0243 28.6575 88.3843 28.6775L88.4743 28.7075V30.4175H82.4743ZM89.7123 30.4175V28.7675H89.7423C90.1023 28.7675 90.4223 28.7375 90.7023 28.6775C91.0023 28.6175 91.2323 28.5175 91.3923 28.3775C91.5523 28.2375 91.6323 28.0475 91.6323 27.8075V17.9975C91.6323 17.7375 91.5723 17.5475 91.4523 17.4275C91.3323 17.3075 91.1523 17.2075 90.9123 17.1275C90.6723 17.0275 90.3623 16.9375 89.9823 16.8575L89.7123 16.7975V15.0875H95.8323V18.3575L96.1623 18.4775V28.4675C96.1623 28.5275 96.2523 28.5875 96.4323 28.6475C96.6123 28.6875 96.8223 28.7175 97.0623 28.7375C97.3223 28.7575 97.5623 28.7675 97.7823 28.7675H97.8723V30.4175H89.7123ZM108.132 30.4175H99.9723V28.7675H100.032C100.232 28.7675 100.462 28.7575 100.722 28.7375C100.982 28.7175 101.202 28.6875 101.382 28.6475C101.582 28.5875 101.682 28.5275 101.682 28.4675V19.9175C101.682 19.3175 101.612 18.8375 101.472 18.4775C101.352 18.0975 101.152 17.8175 100.872 17.6375C100.592 17.4575 100.212 17.3675 99.7323 17.3675C99.1923 17.3675 98.6723 17.4975 98.1723 17.7575C97.6923 18.0175 97.2423 18.4075 96.8223 18.9275C96.4023 19.4475 95.9923 20.0975 95.5923 20.8775L95.5623 18.3875C96.0023 17.6075 96.4923 16.9575 97.0323 16.4375C97.5923 15.8975 98.2223 15.4875 98.9223 15.2075C99.6223 14.9275 100.392 14.7875 101.232 14.7875C102.252 14.7875 103.132 14.9775 103.872 15.3575C104.612 15.7175 105.182 16.2775 105.582 17.0375C106.002 17.7775 106.212 18.7175 106.212 19.8575V27.8075C106.212 28.0475 106.292 28.2375 106.452 28.3775C106.612 28.5175 106.832 28.6175 107.112 28.6775C107.392 28.7375 107.712 28.7675 108.072 28.7675H108.132V30.4175ZM121.944 17.3675C121.924 17.2475 121.804 17.1375 121.584 17.0375C121.384 16.9375 121.134 16.8675 120.834 16.8275C120.534 16.7675 120.214 16.7375 119.874 16.7375H119.814V15.0875H125.784V16.7375H125.724C125.484 16.7375 125.244 16.7775 125.004 16.8575C124.764 16.9175 124.554 17.0475 124.374 17.2475C124.194 17.4275 124.044 17.6775 123.924 17.9975L119.424 30.4175H115.014L110.394 17.7575C110.314 17.4775 110.184 17.2675 110.004 17.1275C109.844 16.9875 109.644 16.8875 109.404 16.8275C109.184 16.7675 108.914 16.7375 108.594 16.7375H108.534V15.0875H116.964V16.7375H116.904C116.564 16.7375 116.224 16.7475 115.884 16.7675C115.544 16.7875 115.264 16.8175 115.044 16.8575C114.824 16.8775 114.714 16.9275 114.714 17.0075L118.704 28.3475L118.164 27.9575L121.944 17.3675ZM130.941 12.5675C130.161 12.5675 129.531 12.3675 129.051 11.9675C128.591 11.5675 128.361 11.0075 128.361 10.2875C128.361 9.58748 128.591 9.04748 129.051 8.66748C129.531 8.26748 130.161 8.06748 130.941 8.06748C131.721 8.06748 132.341 8.26748 132.801 8.66748C133.281 9.04748 133.521 9.58748 133.521 10.2875C133.521 11.0075 133.281 11.5675 132.801 11.9675C132.341 12.3675 131.721 12.5675 130.941 12.5675ZM133.311 15.0875V27.8075C133.311 28.1875 133.491 28.4475 133.851 28.5875C134.211 28.7075 134.651 28.7675 135.171 28.7675H135.201V30.4175H126.861V28.7675H126.891C127.431 28.7675 127.871 28.7075 128.211 28.5875C128.571 28.4475 128.751 28.1875 128.751 27.8075V17.9975C128.751 17.6375 128.621 17.3875 128.361 17.2475C128.101 17.1075 127.681 16.9775 127.101 16.8575L126.831 16.7975V15.0875H133.311ZM153.174 30.4175H144.474V28.7675H144.534C144.874 28.7675 145.204 28.7575 145.524 28.7375C145.844 28.7175 146.114 28.6875 146.334 28.6475C146.554 28.6075 146.664 28.5575 146.664 28.4975L142.674 23.4275L142.584 23.3375L138.114 17.5475C137.954 17.3275 137.794 17.1675 137.634 17.0675C137.474 16.9475 137.294 16.8675 137.094 16.8275C136.894 16.7875 136.634 16.7675 136.314 16.7675H136.284V15.0875H144.894V16.7375H144.834C144.514 16.7375 144.194 16.7475 143.874 16.7675C143.574 16.7875 143.324 16.8175 143.124 16.8575C142.924 16.8775 142.824 16.9175 142.824 16.9775L146.634 21.8975L146.754 22.0175L151.194 27.7475C151.394 27.9675 151.574 28.1575 151.734 28.3175C151.914 28.4775 152.114 28.5975 152.334 28.6775C152.554 28.7375 152.824 28.7675 153.144 28.7675H153.174V30.4175ZM136.104 30.4175V28.7675H136.134C136.394 28.7675 136.634 28.7275 136.854 28.6475C137.094 28.5675 137.314 28.4475 137.514 28.2875C137.734 28.1075 137.944 27.8875 138.144 27.6275L142.584 22.3175L144.174 23.3075L140.214 28.1675C140.214 28.2875 140.304 28.3975 140.484 28.4975C140.684 28.5775 140.934 28.6475 141.234 28.7075C141.534 28.7475 141.834 28.7675 142.134 28.7675H142.194V30.4175H136.104ZM146.544 23.0375L145.044 21.9275L148.794 17.3375C148.794 17.2175 148.704 17.1175 148.524 17.0375C148.344 16.9375 148.114 16.8675 147.834 16.8275C147.554 16.7675 147.264 16.7375 146.964 16.7375H146.874V15.0875H152.844V16.7375H152.814C152.534 16.7375 152.274 16.7875 152.034 16.8875C151.794 16.9675 151.564 17.1075 151.344 17.3075C151.144 17.5075 150.904 17.7675 150.624 18.0875L146.544 23.0375Z" fill="#0C0C0C" fill-opacity="0.9"/>
<g clip-path="url(#clip0_194_1227)">
<path d="M20.2646 16.3477C19.5064 16.3686 18.7657 16.4601 18.0488 16.6148C15.0801 17.4584 12.9019 20.1671 12.9019 23.3695C12.9019 27.2442 16.0906 30.3964 20.01 30.3964C23.9295 30.3964 27.1182 27.2441 27.1182 23.3695C27.1183 19.5792 24.0666 16.4806 20.2646 16.3477Z" fill="#0C0C0C" fill-opacity="0.9"/>
<path d="M34.3069 5.86846C30.4879 2.09334 25.4105 0.0142822 20.0099 0.0142822C14.6093 0.0142822 9.53185 2.09334 5.71304 5.86846C2.87894 8.67005 0.990937 12.1572 0.205078 15.9513C2.86236 11.1823 7.99701 7.94361 13.883 7.94361C22.4057 7.94361 29.3532 14.7332 29.4844 23.1281C29.4865 23.2083 29.4875 23.2888 29.4875 23.3695C29.4875 28.5357 25.2358 32.7387 20.0099 32.7387C14.7839 32.7387 10.5323 28.5356 10.5323 23.3695C10.5323 22.7347 10.5968 22.1146 10.719 21.5149C9.40905 23.4111 8.64198 25.7015 8.64198 28.166C8.64198 34.5901 13.8517 39.8338 20.3139 39.9857C25.6007 39.9091 30.5597 37.8394 34.3067 34.1351C38.1256 30.36 40.2288 25.3407 40.2288 20.0018C40.2288 14.6629 38.1256 9.64365 34.3069 5.86846Z" fill="#0C0C0C" fill-opacity="0.9"/>
<path d="M23.8986 14.8258C21.4698 12.0472 17.8806 10.2859 13.883 10.2859C6.58521 10.2859 0.647949 16.1552 0.647949 23.3695C0.647949 25.1955 1.02599 26.9736 1.75388 28.6151C2.7322 30.6377 4.06187 32.503 5.71303 34.1351C6.85616 35.2651 8.11278 36.2419 9.45634 37.0577C7.46646 34.625 6.27263 31.5309 6.27263 28.1659C6.27263 21.416 11.0734 15.7545 17.4766 14.3407C18.2833 14.1192 19.1328 14.0003 20.0099 14.0003C20.1003 14.0003 20.1903 14.0019 20.2801 14.0044C20.3872 14.0021 20.4945 14.0003 20.6022 14.0003V14.0192C21.7703 14.0908 22.882 14.3718 23.8986 14.8258Z" fill="#0C0C0C" fill-opacity="0.9"/>
</g>
<defs>
<clipPath id="clip0_194_1227">
<rect width="40.4341" height="39.9714" fill="white" transform="translate(0 0.0142822)"/>
</clipPath>
</defs>
</svg>
